<svg width="124" height="45" viewBox="0 0 124 45" fill="none" xmlns="http://www.w3.org/2000/svg">
<path d="M79.0317 20.4061C76.5387 20.4061 74.0077 21.4124 71.861 23.3884L70.0117 20.8324H62.7195L68.1805 28.9283C67.6057 30.3609 67.2993 31.5629 67.0292 32.9187L65.3104 44.0736H71.299L73.0885 33.6926C73.8173 29.3931 76.042 26.5261 79.0317 26.5261C82.1756 26.4877 84.5163 28.9283 84.5163 32.5692C84.5163 36.2101 81.871 38.7276 78.457 38.7276C77.8442 38.7276 76.3683 38.5373 75.6576 38.3178L75.6195 44.1523C76.5387 44.3627 77.6139 44.4999 78.4189 44.4999C85.7057 44.4999 90.5756 39.6973 90.5756 32.4924C90.5756 25.2875 85.9359 20.408 79.0335 20.408" fill="#020140"/>
<path d="M21.4119 20.8316H6.30357V15.4087H0.282349V26.9131H14.7017L7.667 44.0728H14.3645L21.6821 26.2545C21.7582 26.0605 21.7963 25.8666 21.7963 25.7898V20.8316H21.4137H21.4119Z" fill="#020140"/>
<path d="M24.1737 20.8317V26.9132H37.77L35.9297 28.8105C35.8916 28.8489 35.8535 28.966 35.8535 29.0428V44.0711H41.989V26.9114H45.6315V20.8298H24.1737V20.8317Z" fill="#020140"/>
<path d="M63.4139 44.0728L58.6056 20.8334H48.699V26.9149H53.4927L55.2949 36.211C55.1408 37.2576 54.2597 37.9546 53.0703 37.9546H46.7046V44.0746H52.2272C53.8753 44.0746 54.3358 43.8038 56.216 40.3166L57.7444 44.0746H63.4139V44.0728Z" fill="#020140"/>
<path d="M119.061 37.1449H103.723L98.7838 44.0882H124L119.061 37.1449Z" fill="#020140"/>
<path d="M109.982 35.9427V32.675C109.982 31.9377 110.538 31.3303 111.251 31.2589C111.294 31.2534 111.338 31.2516 111.383 31.2516C111.383 31.2516 111.387 31.2516 111.389 31.2516C111.389 31.2516 111.392 31.2516 111.394 31.2516C112.174 31.2516 112.805 31.8883 112.805 32.675V35.9427H118.543V28.9994H104.245V35.9427H109.983H109.982Z" fill="#020140"/>
<path d="M118.572 27.7968L122.171 20.8517H118.94V22.1909H117.282V20.8517H114.461V22.1909H112.802V20.8517H109.981V22.1909H108.324V20.8517H105.503V22.1909H103.844V20.8517H100.615L104.212 27.7968H118.572Z" fill="#020140"/>
<path d="M117.04 19.6524V15.5669L118.521 12.7073H104.232L105.714 15.5669V19.6524H117.04Z" fill="#020140"/>
<path d="M116.273 4.56189H106.479V11.5052H116.273V4.56189Z" fill="#020140"/>
<path d="M118.036 3.35964L119.517 0.5H116.685V1.83926H115.026V0.5H112.207V1.83926H110.548V0.5H107.726V1.83926H106.069V0.5H103.237L104.719 3.35964H118.036Z" fill="#020140"/>
</svg>
